<svg width="16" height="16" viewBox="0 0 16 16" fill="none" xmlns="http://www.w3.org/2000/svg">
<g clip-path="url(#clip0_44_196)">
<path d="M14.528 12.469C14.286 13.028 13.9996 13.5426 13.6677 14.0157C13.2154 14.6606 12.845 15.107 12.5596 15.3549C12.1172 15.7618 11.6431 15.9702 11.1355 15.982C10.771 15.982 10.3315 15.8783 9.81995 15.668C9.30669 15.4586 8.835 15.3549 8.4037 15.3549C7.95137 15.3549 7.46625 15.4586 6.94736 15.668C6.42767 15.8783 6.00902 15.988 5.68893 15.9988C5.20213 16.0196 4.71691 15.8052 4.23258 15.3549C3.92345 15.0853 3.5368 14.6231 3.0736 13.9683C2.57663 13.269 2.16805 12.4582 1.84796 11.5338C1.50516 10.5353 1.33331 9.56839 1.33331 8.63232C1.33331 7.56006 1.56501 6.63524 2.02909 5.86026C2.39382 5.23776 2.87904 4.74671 3.48633 4.38623C4.09362 4.02574 4.7498 3.84205 5.45644 3.83029C5.84309 3.83029 6.35014 3.94989 6.98024 4.18495C7.60857 4.42079 8.01201 4.54039 8.1889 4.54039C8.32114 4.54039 8.76932 4.40055 9.5291 4.12174C10.2476 3.86318 10.854 3.75612 11.3508 3.79829C12.6969 3.90693 13.7082 4.43758 14.3808 5.3936C13.1769 6.12306 12.5813 7.14476 12.5932 8.45544C12.6041 9.47634 12.9744 10.3259 13.7023 11.0004C14.0322 11.3135 14.4006 11.5555 14.8104 11.7273C14.7215 11.9851 14.6277 12.232 14.528 12.469V12.469ZM11.4406 0.320274C11.4406 1.12046 11.1483 1.86759 10.5656 2.55912C9.86242 3.38122 9.01188 3.85627 8.08954 3.78131C8.07779 3.68531 8.07097 3.58427 8.07097 3.47811C8.07097 2.70993 8.40538 1.88783 8.99924 1.21565C9.29572 0.875319 9.6728 0.592335 10.1301 0.366593C10.5864 0.14422 11.0179 0.0212425 11.4239 0.000183105C11.4357 0.107155 11.4406 0.214134 11.4406 0.320264V0.320274Z" fill="#343434"/>
</g>
<defs>
<clipPath id="clip0_44_196">
<rect width="16" height="16" fill="white"/>
</clipPath>
</defs>
</svg>
