<svg width="375" height="103" viewBox="0 0 375 103" fill="none" xmlns="http://www.w3.org/2000/svg">
<path d="M319.185 153.985C307.083 151.886 295.877 146.245 286.981 137.776C278.086 129.307 271.902 118.391 269.211 106.407C266.519 94.4238 267.442 81.9113 271.862 70.4522C276.282 58.9931 284.001 49.1021 294.043 42.0299C304.084 34.9577 315.997 31.0219 328.276 30.7204C340.554 30.4188 352.646 33.7649 363.023 40.3357C373.399 46.9064 381.594 56.4065 386.572 67.6348C391.549 78.8631 393.085 91.3152 390.985 103.416L355.813 97.3139C356.706 92.1691 356.053 86.8751 353.937 82.1014C351.821 77.3277 348.336 73.2887 343.925 70.4951C339.513 67.7016 334.372 66.279 329.152 66.4072C323.932 66.5354 318.867 68.2087 314.598 71.2155C310.329 74.2222 307.047 78.4274 305.168 83.2992C303.289 88.171 302.897 93.4907 304.041 98.5855C305.185 103.68 307.814 108.321 311.596 111.922C315.378 115.522 320.142 117.921 325.287 118.813L319.185 153.985Z" fill="#FFBEE0"/>
<path d="M270.732 44.9106C279.417 53.5953 285.331 64.6603 287.727 76.7063C290.123 88.7523 288.893 101.238 284.193 112.585C279.493 123.933 271.534 133.631 261.322 140.455C251.109 147.278 239.103 150.92 226.821 150.92C214.539 150.92 202.533 147.278 192.321 140.455C182.109 133.631 174.149 123.932 169.449 112.585C164.749 101.238 163.519 88.7523 165.916 76.7062C168.312 64.6602 174.226 53.5952 182.911 44.9106L208.153 70.1526C204.46 73.8449 201.946 78.5492 200.927 83.6705C199.908 88.7919 200.431 94.1003 202.43 98.9245C204.428 103.749 207.812 107.872 212.153 110.773C216.495 113.674 221.6 115.223 226.821 115.223C232.043 115.223 237.147 113.674 241.489 110.773C245.831 107.872 249.215 103.749 251.213 98.9245C253.211 94.1003 253.734 88.7919 252.715 83.6705C251.697 78.5492 249.182 73.8449 245.49 70.1526L270.732 44.9106Z" fill="#BEBFFF"/>
<path d="M94.5305 132.343C85.7232 123.783 79.6521 112.803 77.0849 100.792C74.5178 88.7814 75.5698 76.2792 80.1081 64.8664C84.6464 53.4536 92.467 43.6428 102.581 36.6748C112.695 29.7067 124.648 25.8943 136.929 25.7196C149.21 25.545 161.267 29.0159 171.575 35.6935C181.883 42.3711 189.979 51.9555 194.84 63.2346C199.701 74.5137 201.109 86.981 198.884 99.0598C196.66 111.139 190.903 122.287 182.343 131.094L156.744 106.213C160.384 102.469 162.831 97.7295 163.777 92.5942C164.723 87.4589 164.124 82.1584 162.058 77.3631C159.991 72.5678 156.549 68.493 152.166 65.654C147.784 62.815 142.658 61.3394 137.437 61.4136C132.216 61.4879 127.134 63.1087 122.834 66.0712C118.534 69.0337 115.209 73.2047 113.279 78.0568C111.35 82.909 110.903 88.2243 111.994 93.3307C113.085 98.437 115.667 103.105 119.411 106.744L94.5305 132.343Z" fill="#FFE4BE"/>
<path d="M113.81 114.226C108.032 125.064 99.17 133.945 88.3445 139.747C77.5191 145.548 65.2164 148.009 52.9922 146.818C40.768 145.628 29.1714 140.839 19.6688 133.058C10.1663 125.276 3.18454 114.852 -0.393478 103.103C-3.9715 91.3534 -3.9851 78.807 -0.432564 67.05C3.11997 55.293 10.0791 44.8534 19.5648 37.0515C29.0504 29.2496 40.6366 24.4357 52.8582 23.2186C65.0797 22.0015 77.3878 24.4359 88.2258 30.2138L71.4322 61.7146C66.8244 59.2581 61.5917 58.2231 56.3957 58.7405C51.1997 59.258 46.2738 61.3046 42.241 64.6216C38.2082 67.9386 35.2495 72.3769 33.7391 77.3754C32.2288 82.3739 32.2346 87.708 33.7558 92.7032C35.2769 97.6984 38.2452 102.13 42.2852 105.439C46.3252 108.747 51.2555 110.783 56.4526 111.289C61.6497 111.795 66.8802 110.749 71.4827 108.282C76.0851 105.816 79.8528 102.04 82.3093 97.4322L113.81 114.226Z" fill="#ECAE58"/>
</svg>
