<svg width="17" height="16" viewBox="0 0 17 16" fill="none" xmlns="http://www.w3.org/2000/svg">
<g clip-path="url(#clip0_44_186)">
<path d="M8.49988 6.54543V9.64361H12.8053C12.6163 10.64 12.0489 11.4836 11.198 12.0509L13.7944 14.0655C15.3071 12.6692 16.1798 10.6182 16.1798 8.18187C16.1798 7.61461 16.1289 7.0691 16.0344 6.54551L8.49988 6.54543Z" fill="#343434"/>
<path d="M4.01643 9.52267L3.43085 9.97093L1.35809 11.5854C2.67445 14.1963 5.37244 16 8.49968 16C10.6596 16 12.4705 15.2873 13.7942 14.0655L11.1978 12.0509C10.4851 12.5309 9.576 12.8218 8.49968 12.8218C6.41969 12.8218 4.65247 11.4182 4.0197 9.52729L4.01643 9.52267Z" fill="#343434"/>
<path d="M1.35812 4.41455C0.812695 5.49087 0.5 6.70543 0.5 7.99996C0.5 9.29448 0.812695 10.509 1.35812 11.5854C1.35812 11.5926 4.01998 9.51991 4.01998 9.51991C3.85998 9.03991 3.76541 8.53085 3.76541 7.99987C3.76541 7.46889 3.85998 6.95984 4.01998 6.47984L1.35812 4.41455Z" fill="#343434"/>
<path d="M8.49985 3.18545C9.67805 3.18545 10.7253 3.59271 11.5617 4.37818L13.8525 2.0873C12.4635 0.792777 10.6599 0 8.49985 0C5.3726 0 2.67445 1.79636 1.35809 4.41455L4.01988 6.48001C4.65256 4.58908 6.41986 3.18545 8.49985 3.18545Z" fill="#343434"/>
</g>
<defs>
<clipPath id="clip0_44_186">
<rect width="16" height="16" fill="white" transform="translate(0.5)"/>
</clipPath>
</defs>
</svg>
